<mxfile host="Electron" modified="2023-10-29T12:33:38.231Z" agent="Mozilla/5.0 (Windows NT 10.0; Win64; x64) AppleWebKit/537.36 (KHTML, like Gecko) draw.io/21.7.5 Chrome/114.0.5735.289 Electron/25.8.1 Safari/537.36" etag="qBQ2PNeoI6cqaaPViFzy" version="21.7.5" type="device">
  <diagram name="Сторінка-1" id="R9vV7XtH37bCGb5rbEeb">
    <mxGraphModel dx="1480" dy="1043" grid="1" gridSize="10" guides="1" tooltips="1" connect="1" arrows="1" fold="1" page="1" pageScale="1" pageWidth="827" pageHeight="1169" math="0" shadow="0">
      <root>
        <mxCell id="0" />
        <mxCell id="1" parent="0" />
        <mxCell id="Whw87h2aXI6mp9csUR2u-3" value="" style="edgeStyle=orthogonalEdgeStyle;rounded=0;orthogonalLoop=1;jettySize=auto;html=1;" edge="1" parent="1" source="Whw87h2aXI6mp9csUR2u-1" target="Whw87h2aXI6mp9csUR2u-2">
          <mxGeometry relative="1" as="geometry" />
        </mxCell>
        <mxCell id="Whw87h2aXI6mp9csUR2u-1" value="Start" style="ellipse;whiteSpace=wrap;html=1;fontStyle=1" vertex="1" parent="1">
          <mxGeometry x="120" y="50" width="120" height="40" as="geometry" />
        </mxCell>
        <mxCell id="Whw87h2aXI6mp9csUR2u-5" value="" style="edgeStyle=orthogonalEdgeStyle;rounded=0;orthogonalLoop=1;jettySize=auto;html=1;" edge="1" parent="1" source="Whw87h2aXI6mp9csUR2u-2" target="Whw87h2aXI6mp9csUR2u-4">
          <mxGeometry relative="1" as="geometry" />
        </mxCell>
        <mxCell id="Whw87h2aXI6mp9csUR2u-2" value="Read m;" style="shape=parallelogram;perimeter=parallelogramPerimeter;whiteSpace=wrap;html=1;fixedSize=1;" vertex="1" parent="1">
          <mxGeometry x="120" y="120" width="120" height="60" as="geometry" />
        </mxCell>
        <mxCell id="Whw87h2aXI6mp9csUR2u-14" value="" style="edgeStyle=orthogonalEdgeStyle;rounded=0;orthogonalLoop=1;jettySize=auto;html=1;" edge="1" parent="1" source="Whw87h2aXI6mp9csUR2u-4" target="Whw87h2aXI6mp9csUR2u-11">
          <mxGeometry relative="1" as="geometry" />
        </mxCell>
        <mxCell id="Whw87h2aXI6mp9csUR2u-15" style="edgeStyle=orthogonalEdgeStyle;rounded=0;orthogonalLoop=1;jettySize=auto;html=1;entryX=0.5;entryY=0;entryDx=0;entryDy=0;" edge="1" parent="1" source="Whw87h2aXI6mp9csUR2u-4" target="Whw87h2aXI6mp9csUR2u-9">
          <mxGeometry relative="1" as="geometry" />
        </mxCell>
        <mxCell id="Whw87h2aXI6mp9csUR2u-27" style="edgeStyle=orthogonalEdgeStyle;rounded=0;orthogonalLoop=1;jettySize=auto;html=1;exitX=0.5;exitY=1;exitDx=0;exitDy=0;entryX=0.5;entryY=0;entryDx=0;entryDy=0;" edge="1" parent="1" source="Whw87h2aXI6mp9csUR2u-4" target="Whw87h2aXI6mp9csUR2u-12">
          <mxGeometry relative="1" as="geometry" />
        </mxCell>
        <mxCell id="Whw87h2aXI6mp9csUR2u-4" value="Read n;" style="shape=parallelogram;perimeter=parallelogramPerimeter;whiteSpace=wrap;html=1;fixedSize=1;" vertex="1" parent="1">
          <mxGeometry x="120" y="260" width="120" height="60" as="geometry" />
        </mxCell>
        <mxCell id="Whw87h2aXI6mp9csUR2u-19" style="edgeStyle=orthogonalEdgeStyle;rounded=0;orthogonalLoop=1;jettySize=auto;html=1;entryX=0.5;entryY=0;entryDx=0;entryDy=0;" edge="1" parent="1" source="Whw87h2aXI6mp9csUR2u-9" target="Whw87h2aXI6mp9csUR2u-17">
          <mxGeometry relative="1" as="geometry">
            <Array as="points">
              <mxPoint x="90" y="470" />
              <mxPoint x="220" y="470" />
            </Array>
          </mxGeometry>
        </mxCell>
        <mxCell id="Whw87h2aXI6mp9csUR2u-9" value="Calculate float sum m and n:&amp;nbsp;m&lt;span style=&quot;font-family: Consolas, &amp;quot;Courier New&amp;quot;, monospace; font-size: 14px; color: rgb(244, 112, 103);&quot;&gt;-++&lt;/span&gt;&lt;span style=&quot;background-color: rgb(34, 39, 46); color: rgb(173, 186, 199); font-family: Consolas, &amp;quot;Courier New&amp;quot;, monospace; font-size: 14px;&quot;&gt;n&lt;/span&gt;&lt;span style=&quot;background-color: rgb(34, 39, 46); color: rgb(173, 186, 199); font-family: Consolas, &amp;quot;Courier New&amp;quot;, monospace; font-size: 14px;&quot;&gt;;&lt;/span&gt;" style="rounded=1;whiteSpace=wrap;html=1;" vertex="1" parent="1">
          <mxGeometry x="30" y="390" width="120" height="60" as="geometry" />
        </mxCell>
        <mxCell id="Whw87h2aXI6mp9csUR2u-18" value="" style="edgeStyle=orthogonalEdgeStyle;rounded=0;orthogonalLoop=1;jettySize=auto;html=1;" edge="1" parent="1" source="Whw87h2aXI6mp9csUR2u-11" target="Whw87h2aXI6mp9csUR2u-17">
          <mxGeometry relative="1" as="geometry" />
        </mxCell>
        <mxCell id="Whw87h2aXI6mp9csUR2u-11" value="Calculate float sum m and n:&amp;nbsp;m&lt;span style=&quot;font-family: Consolas, &amp;quot;Courier New&amp;quot;, monospace; font-size: 14px; color: rgb(244, 112, 103);&quot;&gt;-++&lt;/span&gt;&lt;span style=&quot;background-color: rgb(34, 39, 46); color: rgb(173, 186, 199); font-family: Consolas, &amp;quot;Courier New&amp;quot;, monospace; font-size: 14px;&quot;&gt;n&lt;/span&gt;&lt;span style=&quot;background-color: rgb(34, 39, 46); color: rgb(173, 186, 199); font-family: Consolas, &amp;quot;Courier New&amp;quot;, monospace; font-size: 14px;&quot;&gt;;&lt;/span&gt;" style="rounded=1;whiteSpace=wrap;html=1;" vertex="1" parent="1">
          <mxGeometry x="160" y="390" width="120" height="60" as="geometry" />
        </mxCell>
        <mxCell id="Whw87h2aXI6mp9csUR2u-20" style="edgeStyle=orthogonalEdgeStyle;rounded=0;orthogonalLoop=1;jettySize=auto;html=1;entryX=0.5;entryY=0;entryDx=0;entryDy=0;" edge="1" parent="1" source="Whw87h2aXI6mp9csUR2u-12" target="Whw87h2aXI6mp9csUR2u-17">
          <mxGeometry relative="1" as="geometry">
            <Array as="points">
              <mxPoint x="350" y="470" />
              <mxPoint x="220" y="470" />
            </Array>
          </mxGeometry>
        </mxCell>
        <mxCell id="Whw87h2aXI6mp9csUR2u-12" value="Calculate float sum m and n:&amp;nbsp;m&lt;span style=&quot;font-family: Consolas, &amp;quot;Courier New&amp;quot;, monospace; font-size: 14px; color: rgb(244, 112, 103);&quot;&gt;-++&lt;/span&gt;&lt;span style=&quot;background-color: rgb(34, 39, 46); color: rgb(173, 186, 199); font-family: Consolas, &amp;quot;Courier New&amp;quot;, monospace; font-size: 14px;&quot;&gt;n&lt;/span&gt;&lt;span style=&quot;background-color: rgb(34, 39, 46); color: rgb(173, 186, 199); font-family: Consolas, &amp;quot;Courier New&amp;quot;, monospace; font-size: 14px;&quot;&gt;;&lt;/span&gt;" style="rounded=1;whiteSpace=wrap;html=1;" vertex="1" parent="1">
          <mxGeometry x="290" y="390" width="120" height="60" as="geometry" />
        </mxCell>
        <mxCell id="Whw87h2aXI6mp9csUR2u-24" style="edgeStyle=orthogonalEdgeStyle;rounded=0;orthogonalLoop=1;jettySize=auto;html=1;exitX=0.5;exitY=1;exitDx=0;exitDy=0;entryX=0.5;entryY=0;entryDx=0;entryDy=0;" edge="1" parent="1" source="Whw87h2aXI6mp9csUR2u-17" target="Whw87h2aXI6mp9csUR2u-22">
          <mxGeometry relative="1" as="geometry" />
        </mxCell>
        <mxCell id="Whw87h2aXI6mp9csUR2u-25" style="edgeStyle=orthogonalEdgeStyle;rounded=0;orthogonalLoop=1;jettySize=auto;html=1;exitX=0.5;exitY=1;exitDx=0;exitDy=0;entryX=0.5;entryY=0;entryDx=0;entryDy=0;" edge="1" parent="1" source="Whw87h2aXI6mp9csUR2u-17" target="Whw87h2aXI6mp9csUR2u-21">
          <mxGeometry relative="1" as="geometry" />
        </mxCell>
        <mxCell id="Whw87h2aXI6mp9csUR2u-26" style="edgeStyle=orthogonalEdgeStyle;rounded=0;orthogonalLoop=1;jettySize=auto;html=1;exitX=0.5;exitY=1;exitDx=0;exitDy=0;entryX=0.5;entryY=0;entryDx=0;entryDy=0;" edge="1" parent="1" source="Whw87h2aXI6mp9csUR2u-17" target="Whw87h2aXI6mp9csUR2u-23">
          <mxGeometry relative="1" as="geometry" />
        </mxCell>
        <mxCell id="Whw87h2aXI6mp9csUR2u-17" value="Print result in &lt;b&gt;float&lt;/b&gt;" style="whiteSpace=wrap;html=1;rounded=1;" vertex="1" parent="1">
          <mxGeometry x="160" y="530" width="120" height="60" as="geometry" />
        </mxCell>
        <mxCell id="Whw87h2aXI6mp9csUR2u-29" style="edgeStyle=orthogonalEdgeStyle;rounded=0;orthogonalLoop=1;jettySize=auto;html=1;exitX=0.5;exitY=1;exitDx=0;exitDy=0;entryX=0.5;entryY=0;entryDx=0;entryDy=0;" edge="1" parent="1" source="Whw87h2aXI6mp9csUR2u-21" target="Whw87h2aXI6mp9csUR2u-28">
          <mxGeometry relative="1" as="geometry" />
        </mxCell>
        <mxCell id="Whw87h2aXI6mp9csUR2u-21" value="Calculate double sum m and n:&amp;nbsp;m&lt;span style=&quot;font-family: Consolas, &amp;quot;Courier New&amp;quot;, monospace; font-size: 14px; color: rgb(244, 112, 103);&quot;&gt;-++&lt;/span&gt;&lt;span style=&quot;background-color: rgb(34, 39, 46); color: rgb(173, 186, 199); font-family: Consolas, &amp;quot;Courier New&amp;quot;, monospace; font-size: 14px;&quot;&gt;n&lt;/span&gt;&lt;span style=&quot;background-color: rgb(34, 39, 46); color: rgb(173, 186, 199); font-family: Consolas, &amp;quot;Courier New&amp;quot;, monospace; font-size: 14px;&quot;&gt;;&lt;/span&gt;" style="rounded=1;whiteSpace=wrap;html=1;" vertex="1" parent="1">
          <mxGeometry x="30" y="640" width="120" height="60" as="geometry" />
        </mxCell>
        <mxCell id="Whw87h2aXI6mp9csUR2u-30" style="edgeStyle=orthogonalEdgeStyle;rounded=0;orthogonalLoop=1;jettySize=auto;html=1;exitX=0.5;exitY=1;exitDx=0;exitDy=0;" edge="1" parent="1" source="Whw87h2aXI6mp9csUR2u-22">
          <mxGeometry relative="1" as="geometry">
            <mxPoint x="219.79310344827593" y="760" as="targetPoint" />
          </mxGeometry>
        </mxCell>
        <mxCell id="Whw87h2aXI6mp9csUR2u-22" value="Calculate double sum m and n:&amp;nbsp;m&lt;span style=&quot;font-family: Consolas, &amp;quot;Courier New&amp;quot;, monospace; font-size: 14px; color: rgb(244, 112, 103);&quot;&gt;-++&lt;/span&gt;&lt;span style=&quot;background-color: rgb(34, 39, 46); color: rgb(173, 186, 199); font-family: Consolas, &amp;quot;Courier New&amp;quot;, monospace; font-size: 14px;&quot;&gt;n&lt;/span&gt;&lt;span style=&quot;background-color: rgb(34, 39, 46); color: rgb(173, 186, 199); font-family: Consolas, &amp;quot;Courier New&amp;quot;, monospace; font-size: 14px;&quot;&gt;;&lt;/span&gt;" style="rounded=1;whiteSpace=wrap;html=1;" vertex="1" parent="1">
          <mxGeometry x="160" y="640" width="120" height="60" as="geometry" />
        </mxCell>
        <mxCell id="Whw87h2aXI6mp9csUR2u-31" style="edgeStyle=orthogonalEdgeStyle;rounded=0;orthogonalLoop=1;jettySize=auto;html=1;exitX=0.5;exitY=1;exitDx=0;exitDy=0;" edge="1" parent="1" source="Whw87h2aXI6mp9csUR2u-23">
          <mxGeometry relative="1" as="geometry">
            <mxPoint x="220" y="760" as="targetPoint" />
          </mxGeometry>
        </mxCell>
        <mxCell id="Whw87h2aXI6mp9csUR2u-23" value="Calculate double sum m and n:&amp;nbsp;m&lt;span style=&quot;font-family: Consolas, &amp;quot;Courier New&amp;quot;, monospace; font-size: 14px; color: rgb(244, 112, 103);&quot;&gt;-++&lt;/span&gt;&lt;span style=&quot;background-color: rgb(34, 39, 46); color: rgb(173, 186, 199); font-family: Consolas, &amp;quot;Courier New&amp;quot;, monospace; font-size: 14px;&quot;&gt;n&lt;/span&gt;&lt;span style=&quot;background-color: rgb(34, 39, 46); color: rgb(173, 186, 199); font-family: Consolas, &amp;quot;Courier New&amp;quot;, monospace; font-size: 14px;&quot;&gt;;&lt;/span&gt;" style="rounded=1;whiteSpace=wrap;html=1;" vertex="1" parent="1">
          <mxGeometry x="290" y="640" width="120" height="60" as="geometry" />
        </mxCell>
        <mxCell id="Whw87h2aXI6mp9csUR2u-33" value="" style="edgeStyle=orthogonalEdgeStyle;rounded=0;orthogonalLoop=1;jettySize=auto;html=1;" edge="1" parent="1" source="Whw87h2aXI6mp9csUR2u-28" target="Whw87h2aXI6mp9csUR2u-32">
          <mxGeometry relative="1" as="geometry" />
        </mxCell>
        <mxCell id="Whw87h2aXI6mp9csUR2u-28" value="Print result in &lt;b&gt;double&lt;/b&gt;" style="whiteSpace=wrap;html=1;rounded=1;" vertex="1" parent="1">
          <mxGeometry x="160" y="760" width="120" height="60" as="geometry" />
        </mxCell>
        <mxCell id="Whw87h2aXI6mp9csUR2u-32" value="END" style="ellipse;whiteSpace=wrap;html=1;rounded=1;fontStyle=1" vertex="1" parent="1">
          <mxGeometry x="180" y="890" width="80" height="80" as="geometry" />
        </mxCell>
      </root>
    </mxGraphModel>
  </diagram>
</mxfile>
